<svg width="40" height="40" viewBox="0 0 40 40" fill="none" xmlns="http://www.w3.org/2000/svg">
<path fill-rule="evenodd" clip-rule="evenodd" d="M18.2422 34.1666C18.8878 35.1111 19.6712 35.9541 20.5633 36.6666H11.25C9.17893 36.6666 7.5 34.9876 7.5 32.9166V16.035C7.5 15.0408 7.89477 14.0874 8.59752 13.3842L17.5437 4.43244C18.247 3.72867 19.2012 3.33325 20.1962 3.33325H28.75C30.821 3.33325 32.5 5.01219 32.5 7.08325V17.2969C31.711 16.9331 30.8735 16.6564 30 16.4791V7.08325C30 6.3929 29.4403 5.83325 28.75 5.83325H20.4133L20.4182 12.4973C20.4197 14.5694 18.7403 16.2499 16.6682 16.2499H10V32.9166C10 33.6069 10.5596 34.1666 11.25 34.1666H18.2422ZM17.9147 7.59785L11.7664 13.7499H16.6682C17.3588 13.7499 17.9187 13.1897 17.9182 12.499L17.9147 7.59785Z" fill="#4F959D" fill-opacity="0.25"/>
<path d="M26.4585 24.9998C26.4585 24.3094 27.0182 23.7498 27.7085 23.7498C28.3988 23.7498 28.9585 24.3094 28.9585 24.9998V26.4581H30.417C31.1073 26.4581 31.667 27.0178 31.667 27.7081C31.667 28.3984 31.1073 28.9581 30.417 28.9581H28.9585V30.4166C28.9585 31.1071 28.3988 31.6666 27.7085 31.6666C27.0182 31.6666 26.4585 31.1071 26.4585 30.4166V28.9581H25C24.3097 28.9581 23.75 28.3984 23.75 27.7081C23.75 27.0178 24.3097 26.4581 25 26.4581H26.4585V24.9998Z" fill="#4F959D" fill-opacity="0.25"/>
<path fill-rule="evenodd" clip-rule="evenodd" d="M18.75 27.7083C18.75 22.7608 22.7608 18.75 27.7083 18.75C32.6558 18.75 36.6667 22.7608 36.6667 27.7083C36.6667 32.6558 32.6558 36.6667 27.7083 36.6667C22.7608 36.6667 18.75 32.6558 18.75 27.7083ZM27.7083 21.25C24.1415 21.25 21.25 24.1415 21.25 27.7083C21.25 31.2752 24.1415 34.1667 27.7083 34.1667C31.2752 34.1667 34.1667 31.2752 34.1667 27.7083C34.1667 24.1415 31.2752 21.25 27.7083 21.25Z" fill="#4F959D" fill-opacity="0.25"/>
</svg>
