<?xml version="1.0" encoding="UTF-8"?>
<svg version="1.1" xmlns="http://www.w3.org/2000/svg" width="128" height="128">
<path d="M0 0 C2.03295898 1.07617188 2.03295898 1.07617188 4.12109375 2.53125 C4.90476318 3.076604 5.68843262 3.62195801 6.49584961 4.18383789 C10.88415986 7.36650728 15.2034761 10.63224107 19.5 13.9375 C20.82837891 14.95360352 20.82837891 14.95360352 22.18359375 15.99023438 C23.93848048 17.33410138 25.69113862 18.68088426 27.44140625 20.03076172 C29.15180537 21.3471815 30.86801523 22.65608466 32.58984375 23.95751953 C33.39550781 24.57095215 34.20117188 25.18438477 35.03125 25.81640625 C35.74861328 26.3585376 36.46597656 26.90066895 37.20507812 27.45922852 C39.55229285 29.47409143 40.89552337 31.14006086 41.27415466 34.25654602 C41.28479446 35.13779648 41.29543427 36.01904694 41.30639648 36.92700195 C41.32238388 37.92846756 41.33837128 38.92993317 41.35484314 39.96174622 C41.36020584 41.04300278 41.36556854 42.12425934 41.37109375 43.23828125 C41.38012222 44.35180466 41.3891507 45.46532806 41.39845276 46.6125946 C41.41296986 48.9704621 41.4218456 51.32837001 41.42553711 53.6862793 C41.43742014 57.28829178 41.48658325 60.88858424 41.53710938 64.49023438 C41.54657498 66.78124164 41.55380936 69.07225943 41.55859375 71.36328125 C41.57812607 72.43846512 41.59765839 73.51364899 41.61778259 74.62141418 C41.56754315 82.97785214 41.56754315 82.97785214 38.59008789 86.66479492 C33.47738044 91.27437611 28.19938032 90.18609453 21.56884766 90.18530273 C19.50792873 90.18749158 17.4475431 90.20565983 15.38671875 90.22460938 C14.09378906 90.22654297 12.80085938 90.22847656 11.46875 90.23046875 C10.27701172 90.23457764 9.08527344 90.23868652 7.85742188 90.24291992 C5 90 5 90 3 88 C2.71289062 85.98461914 2.71289062 85.98461914 2.65625 83.53515625 C2.62660156 82.65279297 2.59695312 81.77042969 2.56640625 80.86132812 C2.54449219 79.93771484 2.52257812 79.01410156 2.5 78.0625 C2.45659241 76.24065804 2.40485968 74.41899037 2.34375 72.59765625 C2.31571289 71.38348022 2.31571289 71.38348022 2.28710938 70.14477539 C2.1203219 67.7044676 2.1203219 67.7044676 0 65 C-3.00735549 63.86208171 -4.55340628 63.85844574 -7.625 64.83203125 C-10.45278924 67.41331912 -10.39372172 68.12175469 -10.63671875 71.81640625 C-10.67791576 73.73140255 -10.69388051 75.64707125 -10.6875 77.5625 C-10.70404595 79.48055693 -10.7283998 81.39856736 -10.76171875 83.31640625 C-10.7611145 84.59173218 -10.7611145 84.59173218 -10.76049805 85.89282227 C-11 88 -11 88 -13 90 C-17.06079528 90.44532489 -21.12813899 90.41418642 -25.21142578 90.42553711 C-27.2294455 90.43737938 -29.24435006 90.48648996 -31.26171875 90.53710938 C-42.16825491 90.59751819 -42.16825491 90.59751819 -45.859375 87.59765625 C-48.70388213 84.14583647 -49.12917876 82.56199225 -49.19287109 78.18652344 C-49.20893402 77.1849823 -49.22499695 76.18344116 -49.24154663 75.15155029 C-49.28598472 70.56409344 -49.3270693 65.97678195 -49.35009766 61.38916016 C-49.36665088 58.97011694 -49.3939322 56.5511225 -49.43212891 54.13232422 C-49.48691967 50.64524955 -49.50877697 47.15932229 -49.5234375 43.671875 C-49.54610687 42.59355408 -49.56877625 41.51523315 -49.59213257 40.40423584 C-49.56856457 32.01785901 -49.56856457 32.01785901 -46.72460938 28.47436523 C-44.48951168 26.44455205 -42.33141587 24.49969594 -39.8828125 22.73828125 C-39.11767334 22.18164795 -38.35253418 21.62501465 -37.56420898 21.05151367 C-36.35680054 20.1907019 -36.35680054 20.1907019 -35.125 19.3125 C-33.43097839 18.08595296 -31.73696813 16.85939024 -30.04296875 15.6328125 C-29.19911621 15.02598633 -28.35526367 14.41916016 -27.48583984 13.79394531 C-25.14276409 12.10302794 -22.81265294 10.39619435 -20.48828125 8.6796875 C-19.80169434 8.17268311 -19.11510742 7.66567871 -18.40771484 7.14331055 C-17.1201068 6.19188468 -15.83266476 5.24023409 -14.54541016 4.28833008 C-9.64302617 0.68493313 -6.20069769 -1.11237736 0 0 Z " fill="#F8F8F8" transform="translate(68,19)"/>
</svg>
